# xmcd
# 
# Track frame offsets:
#     150
#     28430
#     53090
#     75345
#     96145
#     114750
#     138040
#     159547
#     182897
#     203095
# 
# Disc length: 3072
# 
# Revision: 6
# Processed by: cddbd v1.5.2PL0 Copyright (c) Steve Scherf et al.
# Submitted via: fre:ac v1.0.31
# 
DISCID=770bfe0a
DTITLE=小田和正 - MY HOME TOWN
DYEAR=1993
DGENRE=New Age
TTITLE0=????? ????
TTITLE1=?????????
TTITLE2=Come on
TTITLE3=? ????
TTITLE4=????
TTITLE5=????????????
TTITLE6=??????
TTITLE7=??????
TTITLE8=let me hold you baby
TTITLE9=my home town
EXTD=YEAR: 1993
EXTT0=
EXTT1=
EXTT2=
EXTT3=
EXTT4=
EXTT5=
EXTT6=
EXTT7=
EXTT8=
EXTT9=
PLAYORDER=
